<?xml version="1.0" standalone="no"?>
<!DOCTYPE svg PUBLIC "-//W3C//DTD SVG 1.0//EN" "http://www.w3.org/TR/2001/REC-SVG-20010904/DTD/svg10.dtd">
<svg xmlns="http://www.w3.org/2000/svg" xmlns:xlink="http://www.w3.org/1999/xlink" id="body_1" width="24" height="13">

<defs>
    <clipPath  id="1">

    <path id=""  clip-rule="evenodd" transform="matrix(1 0 0 1 0 0)"  d="M18 -0.5L18 10L18 10L0 10L0 10L0 -0.5L0 -0.5L18 -0.5z" />    </clipPath>
</defs>

<g transform="matrix(1.3333 0 0 1.3333 0 0)">
	<g clip-path="url(#1)" >
    <path id=""  transform="matrix(1 0 0 -1 0 10)"  d="M0.8173504 10.4736L0.8173504 10.4736L0.8173504 10.4736L9 2.2998075L9 2.2998075L17.18262 10.4736L17.18262 10.4736L17.973633 9.68265L17.973633 9.68265L9 0.7001955L9 0.7001955L0.026399612 9.68265L0.026399612 9.68265L0.8173504 10.4736z" stroke="#FFFFFF" stroke-width="1" fill="#333333" fill-rule="nonzero" />
	</g>
</g>
</svg>